<svg width="26" height="26" viewBox="0 0 26 26" fill="none" xmlns="http://www.w3.org/2000/svg">
<g id="Iconly/Curved/Category">
<g id="Category">
<path id="Stroke 1" fill-rule="evenodd" clip-rule="evenodd" d="M22.7504 7.22995C22.7504 9.4276 20.9681 11.2099 18.7705 11.2099C16.5728 11.2099 14.7915 9.4276 14.7915 7.22995C14.7915 5.0323 16.5728 3.25 18.7705 3.25C20.9681 3.25 22.7504 5.0323 22.7504 7.22995Z" stroke="#263238" stroke-width="2" stroke-linecap="round" stroke-linejoin="round"/>
<path id="Stroke 3" fill-rule="evenodd" clip-rule="evenodd" d="M11.2089 7.22995C11.2089 9.4276 9.4276 11.2099 7.22898 11.2099C5.0323 11.2099 3.25 9.4276 3.25 7.22995C3.25 5.0323 5.0323 3.25 7.22898 3.25C9.4276 3.25 11.2089 5.0323 11.2089 7.22995Z" stroke="#263238" stroke-width="2" stroke-linecap="round" stroke-linejoin="round"/>
<path id="Stroke 5" fill-rule="evenodd" clip-rule="evenodd" d="M22.7504 18.7004C22.7504 20.8981 20.9681 22.6794 18.7705 22.6794C16.5728 22.6794 14.7915 20.8981 14.7915 18.7004C14.7915 16.5028 16.5728 14.7205 18.7705 14.7205C20.9681 14.7205 22.7504 16.5028 22.7504 18.7004Z" stroke="#2D6BF1" stroke-width="2" stroke-linecap="round" stroke-linejoin="round"/>
<path id="Stroke 7" fill-rule="evenodd" clip-rule="evenodd" d="M11.2089 18.7004C11.2089 20.8981 9.4276 22.6794 7.22898 22.6794C5.0323 22.6794 3.25 20.8981 3.25 18.7004C3.25 16.5028 5.0323 14.7205 7.22898 14.7205C9.4276 14.7205 11.2089 16.5028 11.2089 18.7004Z" stroke="#263238" stroke-width="2" stroke-linecap="round" stroke-linejoin="round"/>
</g>
</g>
</svg>
